<?xml version="1.0" encoding="utf-8"?>
<!-- Generator: Adobe Illustrator 22.1.0, SVG Export Plug-In . SVG Version: 6.00 Build 0)  -->
<svg version="1.1" xmlns="http://www.w3.org/2000/svg" xmlns:xlink="http://www.w3.org/1999/xlink" x="0px" y="0px"
	 viewBox="0 0 120 120" style="enable-background:new 0 0 120 120;" xml:space="preserve">
<style type="text/css">
	.st0{display:none;}
	.st1{display:inline;fill:none;stroke:#000000;stroke-miterlimit:10;}
</style>
<g id="レイヤー_1">
	<path d="M53.7,106.7c-3.7,0.2-7.2-3.8-5.3-7.4c1.5-2.8,5.4-3.2,8.1-4.2c7.9-2.8,14.8-8.7,19.2-15.8c-4.6-2-9.3-3.6-14.1-4.9
		c-2.4-0.6-4.9-1.1-7.3-1.7c-1.7-0.4-3.4-1.1-4.9,0c-1.4,1-2.4,2.9-3.5,4.2c-1.3,1.5-2.6,3-4,4.4c-2.8,2.7-6,5.2-9.9,6.1
		c-6.8,1.7-15.5-1.3-17.3-8.7c-2.2-9.1,6.9-14.2,14.5-15.3c4.5-0.7,9.2-0.8,13.8-0.6c3.8,0.1,5.5-2.6,7.3-5.6c2.1-3.6,4-7.3,6-10.9
		c0.8-1.5,5.7-8.8,3.5-9.9c-1.1-0.6-3,0.4-4.1,0.7c-1.8,0.6-3.4,1-5.4,1c-3.6-0.1-7.6-1.6-8.3-5.6c-0.7-3.9,2.8-5.4,6-5.3
		c3.7,0.1,6.7,0.7,10.4-0.1c4.2-1,9.7-2.8,13.6,0.1c3,2.2,2.5,6.2,1.2,9.3c-2,4.7-5.2,8.9-7.9,13.2c-3.1,4.9-6.2,9.7-9.5,14.4
		c8.2,1.4,16.2,3.5,24,6.4c1.4-4.4,0.8-17.4,9.1-13.9c3.7,1.5,3.4,5.9,2.7,9.2c-0.5,2.2-3.2,7.3-1.5,9c0.6,0.6,1.8,0.9,2.5,1.3
		c1.4,0.7,2.9,1.5,4.3,2.3c2.8,1.6,5.5,3.4,8.1,5.3c3.7,2.8,7.6,7.8,2.7,11.8c-4.6,3.7-8.8-2.2-12.1-4.7c-2.5-1.9-5.1-3.7-7.8-5.3
		c-1.8-1.1-2.6-2-4-0.2C79.7,90.4,76,95,70.8,99C66,102.7,60,106.7,53.7,106.7z M24,75.5c0,2.8,3.9,2.9,5.9,2.5
		c3.8-0.8,6.7-4.1,9.3-6.7C35.9,71.3,24,70.3,24,75.5z"/>
</g>
<g id="レイヤー_2" class="st0">
	<path class="st1" d="M53.7,106.7c-3.7,0.2-7.2-3.8-5.3-7.4c1.5-2.8,5.4-3.2,8.1-4.2c7.9-2.8,14.8-8.7,19.2-15.8
		c-4.6-2-9.3-3.6-14.1-4.9c-2.4-0.6-4.9-1.1-7.3-1.7c-1.7-0.4-3.4-1.1-4.9,0c-1.4,1-2.4,2.9-3.5,4.2c-1.3,1.5-2.6,3-4,4.4
		c-2.8,2.7-6,5.2-9.9,6.1c-6.8,1.7-15.5-1.3-17.3-8.7c-2.2-9.1,6.9-14.2,14.5-15.3c4.5-0.7,9.2-0.8,13.8-0.6
		c3.8,0.1,5.5-2.6,7.3-5.6c2.1-3.6,4-7.3,6-10.9c0.8-1.5,5.7-8.8,3.5-9.9c-1.1-0.6-3,0.4-4.1,0.7c-1.8,0.6-3.4,1-5.4,1
		c-3.6-0.1-7.6-1.6-8.3-5.6c-0.7-3.9,2.8-5.4,6-5.3c3.7,0.1,6.7,0.7,10.4-0.1c4.2-1,9.7-2.8,13.6,0.1c3,2.2,2.5,6.2,1.2,9.3
		c-2,4.7-5.2,8.9-7.9,13.2c-3.1,4.9-6.2,9.7-9.5,14.4c8.2,1.4,16.2,3.5,24,6.4c1.4-4.4,0.8-17.4,9.1-13.9c3.7,1.5,3.4,5.9,2.7,9.2
		c-0.5,2.2-3.2,7.3-1.5,9c0.6,0.6,1.8,0.9,2.5,1.3c1.4,0.7,2.9,1.5,4.3,2.3c2.8,1.6,5.5,3.4,8.1,5.3c3.7,2.8,7.6,7.8,2.7,11.8
		c-4.6,3.7-8.8-2.2-12.1-4.7c-2.5-1.9-5.1-3.7-7.8-5.3c-1.8-1.1-2.6-2-4-0.2C79.7,90.4,76,95,70.8,99C66,102.7,60,106.7,53.7,106.7z
		 M24,75.5c0,2.8,3.9,2.9,5.9,2.5c3.8-0.8,6.7-4.1,9.3-6.7C35.9,71.3,24,70.3,24,75.5z"/>
</g>
</svg>
