<?xml version="1.0" encoding="utf-8"?>
<!-- Generator: Adobe Illustrator 22.1.0, SVG Export Plug-In . SVG Version: 6.00 Build 0)  -->
<svg version="1.1" xmlns="http://www.w3.org/2000/svg" xmlns:xlink="http://www.w3.org/1999/xlink" x="0px" y="0px"
	 viewBox="0 0 120 120" style="enable-background:new 0 0 120 120;" xml:space="preserve">
<style type="text/css">
	.st0{display:none;}
	.st1{display:inline;fill:none;stroke:#000000;stroke-miterlimit:10;}
</style>
<g id="レイヤー_1">
	<path d="M81.3,59.9c1.6,0-1,11.6-1.3,12.7c-1.4,6.4-4.4,12.3-8.4,17.5c-8,10.6-24.4,20.4-37.9,14.8C16,97.6,23,71.3,28.7,58.2
		c2.8-6.4,6.9-11.7,10.4-17.7c0.8-1.4,2.8-4.1,0.2-4.1c-2.9,0-5.5,1.5-8.6,1.3c-3.3-0.3-6.7-2.2-6.3-6c0.5-4.7,6-4.8,9.5-4.8
		c5,0.1,9.7-0.1,14.5-1.8c3.7-1.3,7.9-4.8,12-2.8c3.3,1.6,3.4,5.7,1,8.2c-1.2,1.2-2.8,2-4.2,2.9c-1.9,1.2-3.5,2.8-5.1,4.4
		C45.4,45,40.5,54,37.1,63.2c-2.9,7.9-7.1,19.6-2.2,27.6c3.8,6.1,11.9,4.7,17.4,2.1C66.1,86.2,74.9,68,71,53.1
		c-1-3.9-4.8-7.6-4.4-11.8c0.3-3.9,4.3-5.9,7.8-4.4c3.7,1.7,5,6,7,9.1c2.4,3.9,5.9,7,9.8,9.4c3.8,2.3,9.7,3.6,12.4,7.3
		c1.8,2.4,1.2,6.7-1.6,8.2c-4.6,2.5-11.7-2.6-14.9-5.5C85.5,64.1,83.5,59.9,81.3,59.9z"/>
</g>
<g id="レイヤー_2" class="st0">
	<path class="st1" d="M81.3,59.9c1.6,0-1,11.6-1.3,12.7c-1.4,6.4-4.4,12.3-8.4,17.5c-8,10.6-24.4,20.4-37.9,14.8
		C16,97.6,23,71.3,28.7,58.2c2.8-6.4,6.9-11.7,10.4-17.7c0.8-1.4,2.8-4.1,0.2-4.1c-2.9,0-5.5,1.5-8.6,1.3c-3.3-0.3-6.7-2.2-6.3-6
		c0.5-4.7,6-4.8,9.5-4.8c5,0.1,9.7-0.1,14.5-1.8c3.7-1.3,7.9-4.8,12-2.8c3.3,1.6,3.4,5.7,1,8.2c-1.2,1.2-2.8,2-4.2,2.9
		c-1.9,1.2-3.5,2.8-5.1,4.4C45.4,45,40.5,54,37.1,63.2c-2.9,7.9-7.1,19.6-2.2,27.6c3.8,6.1,11.9,4.7,17.4,2.1
		C66.1,86.2,74.9,68,71,53.1c-1-3.9-4.8-7.6-4.4-11.8c0.3-3.9,4.3-5.9,7.8-4.4c3.7,1.7,5,6,7,9.1c2.4,3.9,5.9,7,9.8,9.4
		c3.8,2.3,9.7,3.6,12.4,7.3c1.8,2.4,1.2,6.7-1.6,8.2c-4.6,2.5-11.7-2.6-14.9-5.5C85.5,64.1,83.5,59.9,81.3,59.9z"/>
</g>
</svg>
