<?xml version="1.0" encoding="utf-8"?>
<!-- Generator: Adobe Illustrator 22.1.0, SVG Export Plug-In . SVG Version: 6.00 Build 0)  -->
<svg version="1.1" xmlns="http://www.w3.org/2000/svg" xmlns:xlink="http://www.w3.org/1999/xlink" x="0px" y="0px"
	 viewBox="0 0 120 120" style="enable-background:new 0 0 120 120;" xml:space="preserve">
<style type="text/css">
	.st0{display:none;}
	.st1{display:inline;fill:none;stroke:#000000;stroke-miterlimit:10;}
</style>
<g id="レイヤー_1">
	<path d="M88.8,62.9c0-13.7-12.6-22.4-25.4-22.4c7.9,3.2,0.7,17.2-1.6,21.8C58,70,53.5,77.7,47.9,84.1c-3.2,3.7-7.4,7.7-12.5,8
		c-5.3,0.4-9.8-3.7-12.2-8c-5.6-10.2-2.2-23.8,4.1-32.8c7.6-10.9,20.2-17.9,33.4-19c13.6-1.1,28.2,4.1,35.1,16.5
		c6.4,11.5,4.4,25.7-3.5,35.9c-7.4,9.6-19.1,15.6-30.8,17.9c-2.7,0.5-5.9,1.2-8.4-0.3c-2.3-1.3-3.2-4.5-1.8-6.8
		c2.4-3.7,8.7-4,12.6-4.8C76.6,87.9,88.8,76.4,88.8,62.9z M57.4,41.1C44.1,43.8,32.1,56,30.4,69.6c-0.5,3.9,1,12.5,7,10.2
		c4.7-1.8,7.6-8.2,10.1-12.2c2.6-4.2,5-8.7,6.5-13.5c0.7-2.3,1.2-4.7,1.4-7.2C55.5,44.8,55.6,42.6,57.4,41.1z"/>
</g>
<g id="レイヤー_2" class="st0">
	<path class="st1" d="M88.8,62.9c0-13.7-12.6-22.4-25.4-22.4c7.9,3.2,0.7,17.2-1.6,21.8C58,70,53.5,77.7,47.9,84.1
		c-3.2,3.7-7.4,7.7-12.5,8c-5.3,0.4-9.8-3.7-12.2-8c-5.6-10.2-2.2-23.8,4.1-32.8c7.6-10.9,20.2-17.9,33.4-19
		c13.6-1.1,28.2,4.1,35.1,16.5c6.4,11.5,4.4,25.7-3.5,35.9c-7.4,9.6-19.1,15.6-30.8,17.9c-2.7,0.5-5.9,1.2-8.4-0.3
		c-2.3-1.3-3.2-4.5-1.8-6.8c2.4-3.7,8.7-4,12.6-4.8C76.6,87.9,88.8,76.4,88.8,62.9z M57.4,41.1C44.1,43.8,32.1,56,30.4,69.6
		c-0.5,3.9,1,12.5,7,10.2c4.7-1.8,7.6-8.2,10.1-12.2c2.6-4.2,5-8.7,6.5-13.5c0.7-2.3,1.2-4.7,1.4-7.2C55.5,44.8,55.6,42.6,57.4,41.1
		z"/>
</g>
</svg>
