<?xml version="1.0" encoding="utf-8"?>
<!-- Generator: Adobe Illustrator 22.1.0, SVG Export Plug-In . SVG Version: 6.00 Build 0)  -->
<svg version="1.1" xmlns="http://www.w3.org/2000/svg" xmlns:xlink="http://www.w3.org/1999/xlink" x="0px" y="0px"
	 viewBox="0 0 120 120" style="enable-background:new 0 0 120 120;" xml:space="preserve">
<style type="text/css">
	.st0{display:none;}
	.st1{display:inline;fill:none;stroke:#000000;stroke-miterlimit:10;}
</style>
<g id="レイヤー_1">
	<path d="M38.1,29.8C37.8,36,36.4,42,35.7,48.1c-0.7,6.1-0.8,12.3-0.4,18.4c0.4,5.9,1.5,11.7,3.1,17.4c1.2,4.1,4.3,10.9-1.9,12.7
		c-5.1,1.5-7.3-3.5-8.5-7.4c-1.7-5.4-2.5-11.1-2.9-16.8c-0.8-11.7,0.4-23.6,1.4-35.3c0.4-4-0.5-10.1,4.2-11.8
		C34.1,24.1,38.2,26,38.1,29.8z M71.9,51.1c-5.4,1-10.8,2.3-16.3,2.8c-3.8,0.3-8.7-2-7.2-6.6c1.3-4.1,6.6-3.8,10-3.8
		c2.5,0,4.9-0.2,7.4-0.6c1.7-0.3,5.2-0.3,6.6-1.4c1.4-1.1,0.6-3.9,0.5-5.4c-0.2-2.3-0.7-4.7-0.8-7c-0.1-3.4,1-6.6,4.9-6.9
		c9.2-0.8,6.8,11.7,6.6,17.2c3.8-1,14.5-3.2,12.8,4.4c-0.6,2.6-2.9,4-5.3,4.4c-1.8,0.3-6.5-0.2-7.4,1.6c-1,1.8-0.1,5.4,0,7.4
		c0.2,3.5,0.2,7.1,0,10.6c-0.3,6.8-1.4,13.6-4.2,19.8c-2.8,6.3-7.1,11.9-12.5,16.3c-3.7,3.1-8.2,6.9-13,7.9c-5,1.1-10.2-4.4-5.7-8.6
		c1.9-1.8,4.7-2.3,6.9-3.6c2.8-1.6,5.4-3.7,7.7-6c11.2-11.6,10.8-27.7,10.3-42.7C72.8,50.9,72.4,51,71.9,51.1z M89.6,28.7
		c-1.3-2.7-2.8-5.2-4.6-7.5c-1.4-1.8-3.4-3.5-2.2-5.9c2.2-4.6,7.5-0.4,9.6,1.9c2.6,2.7,6.8,7.5,4.4,11.4
		C95.1,31.3,90.7,32.6,89.6,28.7z M102.4,23.5c-1.2-2.5-2.7-4.8-4.5-7c-1.3-1.5-3.6-3.3-3-5.5c1.4-5.5,7.5-1.6,9.8,0.6
		c2.6,2.5,6.8,6.8,5.5,10.8C109.1,25.9,104.1,27.2,102.4,23.5z"/>
</g>
<g id="レイヤー_2" class="st0">
	<path class="st1" d="M38.1,29.8C37.8,36,36.4,42,35.7,48.1c-0.7,6.1-0.8,12.3-0.4,18.4c0.4,5.9,1.5,11.7,3.1,17.4
		c1.2,4.1,4.3,10.9-1.9,12.7c-5.1,1.5-7.3-3.5-8.5-7.4c-1.7-5.4-2.5-11.1-2.9-16.8c-0.8-11.7,0.4-23.6,1.4-35.3
		c0.4-4-0.5-10.1,4.2-11.8C34.1,24.1,38.2,26,38.1,29.8z M71.9,51.1c-5.4,1-10.8,2.3-16.3,2.8c-3.8,0.3-8.7-2-7.2-6.6
		c1.3-4.1,6.6-3.8,10-3.8c2.5,0,4.9-0.2,7.4-0.6c1.7-0.3,5.2-0.3,6.6-1.4c1.4-1.1,0.6-3.9,0.5-5.4c-0.2-2.3-0.7-4.7-0.8-7
		c-0.1-3.4,1-6.6,4.9-6.9c9.2-0.8,6.8,11.7,6.6,17.2c3.8-1,14.5-3.2,12.8,4.4c-0.6,2.6-2.9,4-5.3,4.4c-1.8,0.3-6.5-0.2-7.4,1.6
		c-1,1.8-0.1,5.4,0,7.4c0.2,3.5,0.2,7.1,0,10.6c-0.3,6.8-1.4,13.6-4.2,19.8c-2.8,6.3-7.1,11.9-12.5,16.3c-3.7,3.1-8.2,6.9-13,7.9
		c-5,1.1-10.2-4.4-5.7-8.6c1.9-1.8,4.7-2.3,6.9-3.6c2.8-1.6,5.4-3.7,7.7-6c11.2-11.6,10.8-27.7,10.3-42.7
		C72.8,50.9,72.4,51,71.9,51.1z M89.6,28.7c-1.3-2.7-2.8-5.2-4.6-7.5c-1.4-1.8-3.4-3.5-2.2-5.9c2.2-4.6,7.5-0.4,9.6,1.9
		c2.6,2.7,6.8,7.5,4.4,11.4C95.1,31.3,90.7,32.6,89.6,28.7z M102.4,23.5c-1.2-2.5-2.7-4.8-4.5-7c-1.3-1.5-3.6-3.3-3-5.5
		c1.4-5.5,7.5-1.6,9.8,0.6c2.6,2.5,6.8,6.8,5.5,10.8C109.1,25.9,104.1,27.2,102.4,23.5z"/>
</g>
</svg>
