<?xml version="1.0" encoding="utf-8"?>
<!-- Generator: Adobe Illustrator 22.1.0, SVG Export Plug-In . SVG Version: 6.00 Build 0)  -->
<svg version="1.1" xmlns="http://www.w3.org/2000/svg" xmlns:xlink="http://www.w3.org/1999/xlink" x="0px" y="0px"
	 viewBox="0 0 120 120" style="enable-background:new 0 0 120 120;" xml:space="preserve">
<style type="text/css">
	.st0{display:none;}
	.st1{display:inline;fill:none;stroke:#000000;stroke-miterlimit:10;}
</style>
<g id="レイヤー_1">
	<path d="M57.7,36.3c-3.3,9.1-8,17.6-12.8,26c-2.4,4.1-4.9,8.1-7.2,12.3c-1.6,2.9-3.5,6.3-7.2,6.4c-3.6,0.1-5.8-2.9-5-6.3
		c0.8-3.6,3.7-6.6,5.9-9.5c5.5-7.5,10.4-15.8,14.4-24.2c-4.9,2.4-12.6,6.8-18.1,3.6c-2.7-1.6-4-5.7-1.5-8.1c2.2-2.2,5.9-0.8,8.6-1
		c4-0.3,7.7-2.4,11.2-4c3.4-1.6,3.5-3.3,3.5-7c0-3.5,0.8-7.7,5.1-7.9c4.3-0.2,5.4,3.6,5.4,7.1c3.4-1,6.1,2.3,5.3,5.5
		C64.4,32.8,60.4,34.4,57.7,36.3z M54.5,108.2c-7.9,0-22-7.1-17.2-16.9c4.7-9.4,18.8-9.2,27.7-8.6c-0.6-7-1.3-14.4,2.3-20.8
		c3-5.3,7.9-7.1,12-11.3c1.5-1.6,0.7-2.3-1.3-2.2c-2.4,0.1-4.7,1.2-7.1,1.5c-2,0.2-4.4-0.7-4.4-3c0-2.4,2.3-4.3,4.4-5.2
		c6.5-2.8,15.9-1.9,22,1.7c4,2.4,8.2,8.6,1.7,10.9c-7.2,2.5-14.5,2.8-18.9,10.1c-2,3.4-2.4,7.1-2.3,10.9c0.1,2.5,0.1,7.2,1.9,9.3
		c0.8,1,3.1,1.3,4.2,1.7c2.1,0.8,4.2,1.9,6.1,3c3,1.8,6.6,4.5,6.6,8.4c0,3.5-3.2,6.7-6.8,5.3c-1.8-0.7-3-2.3-4.5-3.4
		c-2-1.6-4.2-3.1-6.4-4.3C71.9,103.3,62.6,108.3,54.5,108.2z M57.6,90.8c-3.1,0-16.8,2.8-9.4,7c3.5,2,8.1,1.7,11.6,0.1
		c1.9-0.9,3.5-2.3,4.4-4.2c0.7-1.6,0.9-2-0.9-2.3C61.4,91,59.5,90.8,57.6,90.8z"/>
</g>
<g id="レイヤー_2" class="st0">
	<path class="st1" d="M57.7,36.3c-3.3,9.1-8,17.6-12.8,26c-2.4,4.1-4.9,8.1-7.2,12.3c-1.6,2.9-3.5,6.3-7.2,6.4
		c-3.6,0.1-5.8-2.9-5-6.3c0.8-3.6,3.7-6.6,5.9-9.5c5.5-7.5,10.4-15.8,14.4-24.2c-4.9,2.4-12.6,6.8-18.1,3.6c-2.7-1.6-4-5.7-1.5-8.1
		c2.2-2.2,5.9-0.8,8.6-1c4-0.3,7.7-2.4,11.2-4c3.4-1.6,3.5-3.3,3.5-7c0-3.5,0.8-7.7,5.1-7.9c4.3-0.2,5.4,3.6,5.4,7.1
		c3.4-1,6.1,2.3,5.3,5.5C64.4,32.8,60.4,34.4,57.7,36.3z M54.5,108.2c-7.9,0-22-7.1-17.2-16.9c4.7-9.4,18.8-9.2,27.7-8.6
		c-0.6-7-1.3-14.4,2.3-20.8c3-5.3,7.9-7.1,12-11.3c1.5-1.6,0.7-2.3-1.3-2.2c-2.4,0.1-4.7,1.2-7.1,1.5c-2,0.2-4.4-0.7-4.4-3
		c0-2.4,2.3-4.3,4.4-5.2c6.5-2.8,15.9-1.9,22,1.7c4,2.4,8.2,8.6,1.7,10.9c-7.2,2.5-14.5,2.8-18.9,10.1c-2,3.4-2.4,7.1-2.3,10.9
		c0.1,2.5,0.1,7.2,1.9,9.3c0.8,1,3.1,1.3,4.2,1.7c2.1,0.8,4.2,1.9,6.1,3c3,1.8,6.6,4.5,6.6,8.4c0,3.5-3.2,6.7-6.8,5.3
		c-1.8-0.7-3-2.3-4.5-3.4c-2-1.6-4.2-3.1-6.4-4.3C71.9,103.3,62.6,108.3,54.5,108.2z M57.6,90.8c-3.1,0-16.8,2.8-9.4,7
		c3.5,2,8.1,1.7,11.6,0.1c1.9-0.9,3.5-2.3,4.4-4.2c0.7-1.6,0.9-2-0.9-2.3C61.4,91,59.5,90.8,57.6,90.8z"/>
</g>
</svg>
